<?xml version="1.0" encoding="utf-8"?>
<!-- Generator: Adobe Illustrator 26.3.1, SVG Export Plug-In . SVG Version: 6.00 Build 0)  -->
<svg version="1.1" id="图层_1" xmlns="http://www.w3.org/2000/svg" xmlns:xlink="http://www.w3.org/1999/xlink" x="0px" y="0px"
	 viewBox="0 0 456 456" style="enable-background:new 0 0 456 456;" xml:space="preserve">
<style type="text/css">
	.st0{fill:#FFFFFF;}
</style>
<path class="st0" d="M75,186c-4.1,0-7.7,1.5-10,4.3c-2.4,2.6-3.4,6.3-2.9,10.4l8.5,50.8C72,262.5,81.8,271,92,271h51
	c10.9,0,23.1-9.5,25.5-20.1l18-54.2c0.7-2.2,0.2-5.4-1-7.5c-1.9-2-4.8-3.2-8.5-3.2H75 M143,305H92c-27.5,0-51.7-21.4-55.1-48.6
	l-8.5-50.8c-1.9-14.5,2.2-28.1,11.1-37.9C48.3,157.8,61.3,152,75,152h102c14.1,0,26.9,6,35,16.3c1.9,2.6,3.6,5.3,4.9,8.3
	c7.3-1.5,14.8-1.5,21.9,0c1.4-3.1,3.1-5.8,5.1-8.3c8-10.4,20.7-16.3,35-16.3h102c13.8,0,26.7,5.8,35.5,15.6
	c8.7,9.9,12.8,23.5,11.1,37.2l-8.7,52.2c-3.2,26.5-27.5,47.9-54.9,47.9h-51c-26.5,0-52.4-20.2-58.8-45.9L238.9,213
	c-6.5-4.8-15.5-4.8-21.9,0l-15.6,47.3C195.2,284.9,169.5,305,143,305 M279,186c-3.7,0-6.6,1.2-8.5,3.2c-1.4,2-1.7,5.3-0.9,8.7
	l17.2,51.9c3.1,11.7,15.3,21.3,26.2,21.3h51c10,0,20.1-8.5,21.3-18.9l8.7-52.2c0.5-3.4-0.5-7.1-2.9-9.7c-2.6-2.8-6.2-4.4-10-4.3H279
	z"/>
<path class="st0" d="M73.2,359.3l-18-34.3H76l4.8,11.5c1.5,3.3,3,7.2,5,11.7h0.4c1.5-4.6,3-8.5,4.3-11.7l4.1-11.5h20l-18,35.2
	l19.1,35.4H94.9L89.3,383c-1.7-3.7-3.3-7.4-5-11.7h-0.4c-1.5,4.3-3,8-4.6,11.7l-5.2,12.6h-20L73.2,359.3z"/>
<path class="st0" d="M124.7,325h25.9c15.4,0,28.7,5.6,28.7,23.5c0,17.3-13.5,24.8-28.2,24.8h-7.6v22.4h-18.7V325z M150.1,358.5
	c7.4,0,10.9-3.7,10.9-10c0-6.3-4.1-8.7-11.3-8.7h-6.3v18.7H150.1z"/>
<path class="st0" d="M189.2,341.3h15.2l1.3,9.3h0.4c4-7.4,10.1-10.6,15.4-10.6c3.4,0,5.2,0.4,6.7,1.1l-3,16.1
	c-2-0.4-3.7-0.9-6.1-0.9c-3.9,0-8.7,2.4-11.3,9.1v30.2h-18.7V341.3z"/>
<path class="st0" d="M233.5,325.2c0-5.4,4.3-9.3,10.4-9.3s10.4,3.9,10.4,9.3s-4.3,9.3-10.4,9.3S233.5,330.7,233.5,325.2z
	 M234.6,341.3h18.7v54.3h-18.7V341.3z"/>
<path class="st0" d="M261.6,389.3l8.3-11.5c5,3.7,9.5,5.4,13.3,5.4c3.9,0,5.4-1.1,5.4-3.3c0-2.8-5-4.1-10.4-6.3
	c-6.3-2.5-13.7-7.2-13.7-16.1c0-10.6,8.7-17.6,21.5-17.6c8.9,0,15.2,3.6,20,7.2l-8.3,11.1c-3.9-2.8-7.7-4.6-11.1-4.6
	c-3.2,0-4.8,0.9-4.8,3c0,2.8,4.8,3.9,10.2,5.9c6.5,2.4,13.9,6.5,13.9,16.3c0,10.2-8,18-23.2,18C275.7,396.9,267.2,393.9,261.6,389.3
	z"/>
<path class="st0" d="M315,341.3h15.2l1.3,6.6h0.4c4.3-4.2,8.9-7.9,16.3-7.9s12.1,3,15,8.7c4.5-4.6,9.3-8.7,16.7-8.7
	c11.9,0,17.2,8.7,17.2,22.2v33.5h-18.7v-31.1c0-7-1.7-8.7-5.4-8.7c-2.2,0-4.8,1.3-7.6,4.1v35.6h-18.7v-31.1c0-7-1.7-8.7-5.4-8.7
	c-2.2,0-4.8,1.3-7.6,4.1v35.6H315V341.3z"/>
</svg>
